PathFileType  4	(X/Y/Z) C:\Users\antoi\Documents\MyRepositories\mobilecap\ResultsAnalysis
DataRate	CameraRate	NumFrames	NumMarkers	Units	OrigDataRate	OrigDataStartFrame	OrigNumFrames
100.0	100.0	4	51	mm	100.0	437	1747
Frame#	Time	r_knee			r_shank_antsup			r_ankle			r_calc			r_5meta			r_toe			L_knee			L_shank_antsup			L_ankle			L_calc			L_5meta			L_toe			r_sh2			r_sh3			r_sh4			L_sh2			L_sh3			r_thigh1			r_thigh2			r_thigh3			r_thigh4			r_thigh5			L_thigh1			L_thigh2			L_thigh3			L_thigh4			r.ASIS			r.PSIS			L.ASIS			L.PSIS			C7			R_Shoulder			L_Shoulder			R_Sternum			L_Sternum			R_humerus			R_elbow_med			R_elbow_lat			R_forearm			R_wrist_radius			R_wrist_ulna			L_humerus			L_elbow_med			L_elbow_lat			L_forearm			L_wrist_radius			L_wrist_ulna			R_HJC			L_HJC			R_HJC_reg			L_HJC_reg			
		X1	Y1	Z1	X2	Y2	Z2	X3	Y3	Z3	X4	Y4	Z4	X5	Y5	Z5	X6	Y6	Z6	X7	Y7	Z7	X8	Y8	Z8	X9	Y9	Z9	X10	Y10	Z10	X11	Y11	Z11	X12	Y12	Z12	X13	Y13	Z13	X14	Y14	Z14	X15	Y15	Z15	X16	Y16	Z16	X17	Y17	Z17	X18	Y18	Z18	X19	Y19	Z19	X20	Y20	Z20	X21	Y21	Z21	X22	Y22	Z22	X23	Y23	Z23	X24	Y24	Z24	X25	Y25	Z25	X26	Y26	Z26	X27	Y27	Z27	X28	Y28	Z28	X29	Y29	Z29	X30	Y30	Z30	X31	Y31	Z31	X32	Y32	Z32	X33	Y33	Z33	X34	Y34	Z34	X35	Y35	Z35	X36	Y36	Z36	X37	Y37	Z37	X38	Y38	Z38	X39	Y39	Z39	X40	Y40	Z40	X41	Y41	Z41	X42	Y42	Z42	X43	Y43	Z43	X44	Y44	Z44	X45	Y45	Z45	X46	Y46	Z46	X47	Y47	Z47	X48	Y48	Z48	X49	Y49	Z49	X50	Y50	Z50	X51	Y51	Z51	

437	4.36000000	-111.52359	504.31290	-381.15098	-79.79220	379.02352	-388.98672	-277.56175	101.60267	-410.50009	-344.67548	68.20637	-463.92361	-163.61132	38.89400	-343.09171	-114.21724	59.19229	-409.79377	-130.91123	510.42511	-912.75634	-78.58605	404.39285	-904.11333	-250.09488	92.33390	-891.01839	-320.38923	69.05939	-846.85024	-112.79568	32.36158	-908.90675	-86.32754	59.13852	-839.16956	-117.39964	271.54471	-416.78701	-146.17021	389.23589	-350.51096	-176.34581	276.11934	-357.16165	-159.35098	426.09912	-938.83320	-171.98255	305.35725	-950.72274	-244.91384	716.41543	-440.87602	-149.79058	658.50962	-428.25280	-151.49501	622.26389	-371.69394	-296.57163	647.32754	-366.75690	-193.18054	586.42106	-360.08959	-295.46289	716.87383	-867.68000	-175.14909	654.53117	-891.61087	-349.54337	624.94054	-903.87729	-228.38215	561.54731	-924.33165	-355.00945	774.03331	-493.14456	-529.77540	867.66305	-573.89465	-359.54677	772.76751	-762.63997	-534.39924	868.67448	-672.69919	-140.05848	1214.44608	-607.62149	-123.86462	1103.83706	-439.33976	-111.17349	1136.26548	-776.28214	-79.47735	1060.23176	-592.79952	-83.33835	1062.78012	-637.36342	-185.21114	971.27654	-352.04213	-367.52819	821.10113	-327.45156	-308.36080	843.23689	-254.73808	-180.22647	861.27032	-357.82113	-96.73645	864.45629	-437.67011	-85.55669	822.42852	-436.43185	-171.70265	1005.55460	-880.29767	-359.49180	860.34708	-917.82743	-284.96564	865.65151	-968.98955	-185.11520	881.26152	-842.55453	-98.49335	861.32561	-765.38697	-95.56601	816.39955	-779.85076	-454.06365	722.37809	-527.95427	-460.15753	711.50174	-740.97118	-447.11333	719.25461	-527.87524	-455.43013	721.07394	-705.57968	
438	4.37000000	-110.66659	504.93367	-382.25761	-79.81809	379.35589	-389.99043	-277.62475	101.72381	-410.64693	-344.73717	68.22636	-463.90454	-163.56787	38.94271	-343.07824	-114.18345	59.23976	-409.79208	-131.48446	511.40473	-911.82425	-79.84044	404.88759	-903.65919	-250.30835	92.42107	-890.65501	-320.44689	69.07581	-846.76321	-112.80704	32.40198	-908.89814	-86.35236	59.22181	-839.21916	-117.43645	271.74619	-417.31357	-146.07954	389.74292	-351.33035	-176.49362	276.45859	-357.83182	-160.60753	426.77395	-937.99392	-173.12883	306.03727	-950.15588	-239.09071	720.45853	-440.87908	-145.19044	660.21440	-428.30811	-147.89143	623.39798	-372.11257	-292.22953	652.65586	-366.59915	-190.37438	588.84238	-360.68800	-290.85188	722.30637	-868.00537	-172.29199	656.53697	-891.69602	-347.38043	631.25698	-902.85075	-228.01894	564.82257	-923.41873	-348.13673	781.21185	-493.45987	-525.02137	878.64989	-572.60658	-355.82237	781.04560	-762.56084	-529.92127	879.67070	-671.42903	-139.82089	1229.74296	-607.22729	-121.68717	1119.32738	-438.76347	-110.02653	1151.92799	-775.93246	-77.05766	1076.55532	-592.44223	-81.09837	1079.02282	-636.82055	-181.40902	985.28745	-352.30513	-363.05674	832.55385	-329.77876	-302.42869	854.31527	-256.37574	-175.68405	873.86326	-360.93743	-92.91394	878.43191	-441.55555	-81.18112	836.52507	-440.41936	-169.49695	1020.14627	-879.18864	-355.49608	872.61043	-915.83905	-281.04480	878.46030	-967.33918	-181.12048	894.99781	-840.98574	-94.19988	875.83147	-763.94398	-90.88355	830.74307	-778.12948	-449.50464	731.62065	-527.53030	-457.61763	721.32795	-740.52478	-442.62202	728.49971	-527.80134	-451.41955	730.33265	-705.24653	
439	4.38000000	-110.11912	505.77753	-383.36065	-80.02648	379.78956	-390.99575	-277.69904	101.82695	-410.71594	-344.76972	68.24739	-463.86076	-163.56942	38.97908	-343.07733	-114.18386	59.26639	-409.78798	-132.34807	512.53904	-911.07579	-81.18453	405.67187	-903.02997	-250.56928	92.54451	-890.31297	-320.48027	69.10030	-846.68315	-112.81660	32.44486	-908.89142	-86.38485	59.27399	-839.23796	-117.55498	272.11211	-417.86472	-146.29087	390.26744	-352.24860	-176.64371	276.89182	-358.42624	-162.07311	427.48916	-937.06683	-174.40581	306.79491	-949.58055	-233.02733	724.82861	-440.29782	-140.76288	661.89218	-428.41650	-144.69856	624.65065	-372.57723	-288.07139	658.06169	-366.50930	-187.94107	591.21739	-361.41408	-286.32834	727.61896	-868.15827	-169.66970	658.43737	-891.64235	-345.33674	637.64251	-901.78002	-227.82572	568.06283	-922.40758	-342.95285	791.71261	-492.01457	-520.29582	889.59852	-571.36090	-350.56492	791.04767	-760.80758	-525.36873	890.58637	-670.24394	-139.80338	1245.18458	-606.80894	-119.69363	1135.02687	-438.16214	-109.12305	1167.76888	-775.60151	-74.88666	1092.96856	-591.95576	-79.02076	1095.41311	-636.75356	-177.88094	999.63312	-352.54267	-357.96646	844.57967	-331.24813	-296.95363	865.72758	-258.14132	-171.33113	886.77885	-363.82732	-89.10027	892.52218	-445.19251	-77.04086	850.69813	-444.13814	-167.62566	1034.95408	-878.17141	-351.83392	885.11862	-913.80670	-277.54757	891.53073	-965.67833	-177.36109	909.05547	-839.71675	-90.09086	890.41694	-762.42258	-86.37668	845.30062	-776.62337	-444.77652	742.42460	-525.92838	-452.79108	731.71519	-738.90294	-437.43119	739.08944	-526.11577	-446.52337	740.86002	-703.34611	
440	4.39000000	-109.90796	506.71235	-384.59593	-80.43647	380.29812	-392.01870	-277.78774	101.95623	-410.67319	-344.76493	68.28075	-463.79253	-163.59147	39.01715	-343.07539	-114.19298	59.28621	-409.79794	-133.43747	513.76117	-910.26019	-82.59255	406.79997	-902.42984	-250.85234	92.72605	-890.07536	-320.47764	69.14000	-846.64902	-112.82845	32.48247	-908.88272	-86.41793	59.28660	-839.21830	-117.80651	272.59105	-418.47544	-146.76219	390.87916	-353.25692	-176.86213	277.50709	-358.83084	-163.76756	428.37012	-936.24181	-175.74212	307.62525	-949.04238	-227.04439	729.23105	-439.79758	-136.50644	663.81190	-428.43896	-141.61204	626.18741	-372.90902	-283.77160	662.98350	-366.90414	-185.70859	593.72199	-362.08057	-281.85066	732.88734	-868.33791	-167.23413	660.30759	-891.45784	-343.40147	644.04343	-900.58372	-227.77879	571.12309	-921.03762	-338.41253	803.28152	-490.51797	-515.51841	900.41865	-570.32188	-345.12694	801.77984	-758.91402	-520.75882	901.39664	-669.07733	-139.97720	1260.69626	-606.31212	-117.97994	1150.88274	-437.49820	-108.49350	1183.75854	-775.46307	-72.92325	1109.46774	-591.37018	-77.17822	1111.91566	-636.60974	-174.67256	1014.10190	-352.66619	-353.05628	856.93325	-332.07709	-291.89587	877.47586	-260.02187	-167.12732	899.98637	-366.52970	-85.38531	906.75310	-448.36982	-73.06700	864.97420	-447.37592	-165.95767	1049.88841	-877.41041	-348.45800	897.89939	-911.85345	-274.53999	904.78667	-963.93907	-173.86924	923.15478	-838.42055	-86.25528	905.22278	-761.22023	-82.04904	860.23700	-775.61075	-439.94426	753.63650	-524.30097	-447.42802	742.37133	-737.26214	-432.10237	750.14463	-524.39989	-441.49280	751.89715	-701.34392	
